<svg width="32" height="33" viewBox="0 0 32 33" fill="none" xmlns="http://www.w3.org/2000/svg">
<rect y="0.5" width="32" height="32" rx="16" fill="#F3F4F6"/>
<path d="M18.3332 16.4993C18.3332 17.788 17.2885 18.8327 15.9998 18.8327C14.7112 18.8327 13.6665 17.788 13.6665 16.4993C13.6665 15.2107 14.7112 14.166 15.9998 14.166C17.2885 14.166 18.3332 15.2107 18.3332 16.4993Z" stroke="#525252"/>
<path d="M22.0075 17.8979C22.3554 17.8041 22.5294 17.7571 22.5981 17.6674C22.6668 17.5777 22.6668 17.4334 22.6668 17.1448V15.8557C22.6668 15.5671 22.6668 15.4227 22.5981 15.3331C22.5294 15.2433 22.3554 15.1964 22.0075 15.1026C20.7072 14.7519 19.8934 13.3925 20.229 12.1008C20.3213 11.7455 20.3674 11.5679 20.3234 11.4637C20.2793 11.3596 20.1529 11.2878 19.9 11.1442L18.7502 10.4914C18.502 10.3505 18.378 10.28 18.2666 10.295C18.1552 10.31 18.0296 10.4354 17.7783 10.686C16.8055 11.6565 15.1959 11.6565 14.2231 10.686C13.9718 10.4353 13.8461 10.31 13.7348 10.295C13.6234 10.28 13.4993 10.3504 13.2512 10.4913L12.1014 11.1441C11.8485 11.2877 11.7221 11.3595 11.678 11.4636C11.6339 11.5678 11.6801 11.7455 11.7723 12.1007C12.1077 13.3925 11.2933 14.752 9.99284 15.1026C9.64491 15.1964 9.47094 15.2433 9.40222 15.333C9.3335 15.4227 9.3335 15.5671 9.3335 15.8557V17.1448C9.3335 17.4334 9.3335 17.5777 9.40222 17.6674C9.47093 17.7571 9.6449 17.8041 9.99284 17.8979C11.2931 18.2485 12.1069 19.6079 11.7713 20.8997C11.679 21.2549 11.6329 21.4325 11.6769 21.5367C11.721 21.6409 11.8474 21.7127 12.1003 21.8563L13.2501 22.5091C13.4983 22.65 13.6224 22.7205 13.7338 22.7055C13.8451 22.6905 13.9707 22.5651 14.222 22.3144C15.1953 21.3431 16.806 21.3431 17.7794 22.3143C18.0306 22.5651 18.1562 22.6904 18.2676 22.7054C18.379 22.7204 18.5031 22.6499 18.7512 22.5091L19.901 21.8562C20.154 21.7127 20.2804 21.6409 20.3244 21.5367C20.3685 21.4325 20.3224 21.2549 20.23 20.8996C19.8943 19.6079 20.7074 18.2486 22.0075 17.8979Z" stroke="#525252" stroke-linecap="round"/>
</svg>
