<svg width="18" height="15" viewBox="0 0 18 15" fill="none" xmlns="http://www.w3.org/2000/svg">
<path fill-rule="evenodd" clip-rule="evenodd" d="M17.4999 7.49939C17.4999 7.78118 17.388 8.05143 17.1887 8.25069C16.9895 8.44995 16.7192 8.56189 16.4374 8.56189H4.12732L8.6897 13.1221C8.78848 13.2209 8.86685 13.3382 8.92031 13.4673C8.97377 13.5963 9.00129 13.7347 9.00129 13.8744C9.00129 14.0141 8.97377 14.1524 8.92031 14.2815C8.86685 14.4106 8.78848 14.5279 8.6897 14.6266C8.59091 14.7254 8.47363 14.8038 8.34456 14.8573C8.21549 14.9107 8.07715 14.9382 7.93745 14.9382C7.79774 14.9382 7.6594 14.9107 7.53033 14.8573C7.40126 14.8038 7.28398 14.7254 7.1852 14.6266L0.810196 8.25164C0.711249 8.15294 0.632745 8.03569 0.579182 7.90661C0.525618 7.77753 0.498047 7.63914 0.498047 7.49939C0.498047 7.35963 0.525618 7.22125 0.579182 7.09217C0.632745 6.96308 0.711249 6.84584 0.810196 6.74714L7.1852 0.372139C7.38471 0.17263 7.6553 0.0605469 7.93745 0.0605469C8.21959 0.0605469 8.49019 0.17263 8.6897 0.372139C8.88921 0.571648 9.00129 0.842241 9.00129 1.12439C9.00129 1.40654 8.88921 1.67713 8.6897 1.87664L4.12732 6.43689H16.4374C16.7192 6.43689 16.9895 6.54883 17.1887 6.74809C17.388 6.94735 17.4999 7.2176 17.4999 7.49939Z" fill="#EB4219"/>
</svg>
