<svg width="32" height="33" viewBox="0 0 32 33" fill="none" xmlns="http://www.w3.org/2000/svg">
<rect y="0.5" width="32" height="32" rx="16" fill="#F3F4F6"/>
<path d="M9.3335 14.2134C9.3335 13.4159 9.65508 12.9272 10.3206 12.5568L13.0601 11.0323C14.4956 10.2334 15.2133 9.83398 16.0002 9.83398C16.787 9.83398 17.5048 10.2334 18.9402 11.0323L21.6798 12.5568C22.3452 12.9272 22.6668 13.4159 22.6668 14.2134C22.6668 14.4296 22.6668 14.5377 22.6432 14.6266C22.5192 15.0936 22.096 15.1673 21.6873 15.1673H10.313C9.90434 15.1673 9.48118 15.0936 9.35711 14.6266C9.3335 14.5377 9.3335 14.4296 9.3335 14.2134Z" stroke="#525252"/>
<path d="M15.9971 13.166H16.0031" stroke="#525252" stroke-width="1.33333" stroke-linecap="round" stroke-linejoin="round"/>
<path d="M10.6665 15.166V20.8327M13.3332 15.166V20.8327" stroke="#525252"/>
<path d="M18.6665 15.166V20.8327M21.3332 15.166V20.8327" stroke="#525252"/>
<path d="M20.6668 20.834H11.3335C10.2289 20.834 9.3335 21.7294 9.3335 22.834C9.3335 23.0181 9.48274 23.1673 9.66683 23.1673H22.3335C22.5176 23.1673 22.6668 23.0181 22.6668 22.834C22.6668 21.7294 21.7714 20.834 20.6668 20.834Z" stroke="#525252"/>
</svg>
