<svg width="32" height="33" viewBox="0 0 32 33" fill="none" xmlns="http://www.w3.org/2000/svg">
<rect y="0.5" width="32" height="32" rx="16" fill="#F3F4F6"/>
<path d="M22.3332 16.4993C22.3332 19.9971 19.4976 22.8327 15.9998 22.8327C12.5021 22.8327 9.6665 19.9971 9.6665 16.4993C9.6665 13.0015 12.5021 10.166 15.9998 10.166C18.5969 10.166 20.8289 11.7292 21.8062 13.966M22.3332 12.166L22.0165 14.2827L19.9998 13.8327" stroke="#525252" stroke-linecap="round" stroke-linejoin="round"/>
<path d="M14.6665 15.8333V14.8333C14.6665 14.097 15.2634 13.5 15.9998 13.5C16.7362 13.5 17.3332 14.097 17.3332 14.8333V15.8333M15.4998 19.5H16.4998C17.2817 19.5 17.6726 19.5 17.9419 19.2933C18.0112 19.2401 18.0733 19.1781 18.1265 19.1087C18.3332 18.8395 18.3332 18.4485 18.3332 17.6667C18.3332 16.8848 18.3332 16.4939 18.1265 16.2246C18.0733 16.1553 18.0112 16.0932 17.9419 16.04C17.6726 15.8333 17.2817 15.8333 16.4998 15.8333H15.4998C14.718 15.8333 14.3271 15.8333 14.0577 16.04C13.9884 16.0932 13.9264 16.1553 13.8732 16.2246C13.6665 16.4939 13.6665 16.8848 13.6665 17.6667C13.6665 18.4485 13.6665 18.8395 13.8732 19.1087C13.9264 19.1781 13.9884 19.2401 14.0577 19.2933C14.3271 19.5 14.718 19.5 15.4998 19.5Z" stroke="#525252" stroke-linejoin="round"/>
</svg>
