<svg width="16" height="16" viewBox="0 0 16 16" fill="none" xmlns="http://www.w3.org/2000/svg">
<path d="M7.99967 14.6673C4.31777 14.6673 1.33301 11.6825 1.33301 8.00065C1.33301 6.13896 2.09611 4.4555 3.32659 3.246M7.99967 14.6673C7.35767 14.1916 7.46014 13.6377 7.78221 13.0838C8.27741 12.2323 8.27741 12.2323 8.27741 11.0969C8.27741 9.96158 8.95207 9.42925 11.333 9.90538C12.4028 10.1194 13.1824 8.64125 14.5712 9.12932M7.99967 14.6673C11.2969 14.6673 14.035 12.2737 14.5712 9.12932M3.32659 3.246C3.89278 3.30575 4.20979 3.60908 4.73631 4.16542C5.73594 5.22166 6.73554 5.3098 7.40201 4.95772C8.40161 4.4296 7.56161 3.57418 8.73481 3.1093C9.45407 2.82432 9.59114 2.07798 9.25074 1.45118M3.32659 3.246C4.52964 2.06346 6.17947 1.33398 7.99967 1.33398C8.42727 1.33398 8.84547 1.37424 9.25074 1.45118M14.5712 9.12932C14.6337 8.76245 14.6663 8.38538 14.6663 8.00065C14.6663 4.74636 12.3346 2.03668 9.25074 1.45118" stroke="#404040" stroke-linejoin="round"/>
</svg>
