<svg width="32" height="32" viewBox="0 0 32 32" fill="none" xmlns="http://www.w3.org/2000/svg">
<rect width="32" height="32" rx="16" fill="#F3F4F6"/>
<path d="M22.6666 16.0007C22.6666 19.6825 19.6818 22.6673 15.9999 22.6673C12.318 22.6673 9.33325 19.6825 9.33325 16.0007C9.33325 12.3188 12.318 9.33398 15.9999 9.33398C19.6818 9.33398 22.6666 12.3188 22.6666 16.0007Z" stroke="#525252" stroke-linecap="round"/>
<path d="M16 22.6673C18.2091 22.6673 20 19.6825 20 16.0007C20 12.3188 18.2091 9.33398 16 9.33398" stroke="#525252" stroke-linecap="round"/>
<path d="M15.3333 12.666H15.3393" stroke="#525252" stroke-width="1.33333" stroke-linecap="round" stroke-linejoin="round"/>
<path d="M14.6667 17.666C14.6667 18.2183 14.219 18.666 13.6667 18.666C13.1145 18.666 12.6667 18.2183 12.6667 17.666C12.6667 17.1137 13.1145 16.666 13.6667 16.666C14.219 16.666 14.6667 17.1137 14.6667 17.666Z" stroke="#525252" stroke-linecap="round"/>
</svg>
