<svg width="16" height="16" viewBox="0 0 16 16" fill="none" xmlns="http://www.w3.org/2000/svg">
<path fill-rule="evenodd" clip-rule="evenodd" d="M14.3541 4.64689C14.4006 4.69334 14.4376 4.74851 14.4628 4.80926C14.488 4.87001 14.501 4.93513 14.501 5.00089C14.501 5.06666 14.488 5.13178 14.4628 5.19253C14.4376 5.25327 14.4006 5.30845 14.3541 5.35489L8.35408 11.3549C8.30764 11.4015 8.25246 11.4384 8.19172 11.4636C8.13097 11.4888 8.06585 11.5018 8.00008 11.5018C7.93432 11.5018 7.86919 11.4888 7.80845 11.4636C7.7477 11.4384 7.69253 11.4015 7.64608 11.3549L1.64608 5.35489C1.5522 5.26101 1.49945 5.13367 1.49945 5.00089C1.49945 4.86812 1.5522 4.74078 1.64608 4.64689C1.73997 4.55301 1.86731 4.50026 2.00008 4.50026C2.13286 4.50026 2.2602 4.55301 2.35408 4.64689L8.00008 10.2939L13.6461 4.64689C13.6925 4.60033 13.7477 4.56339 13.8084 4.53818C13.8692 4.51297 13.9343 4.5 14.0001 4.5C14.0659 4.5 14.131 4.51297 14.1917 4.53818C14.2525 4.56339 14.3076 4.60033 14.3541 4.64689Z" fill="black"/>
</svg>
