<svg width="35" height="34" viewBox="0 0 35 34" fill="none" xmlns="http://www.w3.org/2000/svg">
<mask id="path-1-inside-1_945_2254" fill="white">
<path d="M0.919922 17C0.919922 7.61116 8.53108 0 17.9199 0C27.3088 0 34.9199 7.61116 34.9199 17C34.9199 26.3888 27.3088 34 17.9199 34C8.53108 34 0.919922 26.3888 0.919922 17Z"/>
</mask>
<path d="M0.919922 17C0.919922 7.61116 8.53108 0 17.9199 0C27.3088 0 34.9199 7.61116 34.9199 17C34.9199 26.3888 27.3088 34 17.9199 34C8.53108 34 0.919922 26.3888 0.919922 17Z" fill="#F3F4F6"/>
<path d="M17.9199 34V33C9.08337 33 1.91992 25.8366 1.91992 17H0.919922H-0.0800781C-0.0800781 26.9411 7.9788 35 17.9199 35V34ZM34.9199 17H33.9199C33.9199 25.8366 26.7565 33 17.9199 33V34V35C27.861 35 35.9199 26.9411 35.9199 17H34.9199ZM17.9199 0V1C26.7565 1 33.9199 8.16344 33.9199 17H34.9199H35.9199C35.9199 7.05887 27.861 -1 17.9199 -1V0ZM17.9199 0V-1C7.9788 -1 -0.0800781 7.05887 -0.0800781 17H0.919922H1.91992C1.91992 8.16344 9.08337 1 17.9199 1V0Z" fill="#E5E7EB" mask="url(#path-1-inside-1_945_2254)"/>
<path d="M20.7295 12.3216L21.664 11.3871C22.1801 10.871 23.0169 10.871 23.533 11.3871C24.0491 11.9032 24.0491 12.74 23.533 13.2561L22.5985 14.1906M20.7295 12.3216L17.2402 15.8109C16.5434 16.5077 16.1949 16.8561 15.9577 17.2807C15.7204 17.7053 15.4817 18.7079 15.2534 19.6667C16.2121 19.4384 17.2148 19.1997 17.6394 18.9624C18.064 18.7251 18.4124 18.3767 19.1092 17.6799L22.5985 14.1906M20.7295 12.3216L22.5985 14.1906" stroke="#1F2937" stroke-linecap="round" stroke-linejoin="round"/>
<path d="M23.9199 17C23.9199 19.8284 23.9199 21.2427 23.0413 22.1213C22.1626 23 20.7483 23 17.9199 23C15.0915 23 13.6773 23 12.7986 22.1213C11.9199 21.2427 11.9199 19.8284 11.9199 17C11.9199 14.1716 11.9199 12.7574 12.7986 11.8787C13.6773 11 15.0915 11 17.9199 11" stroke="#1F2937" stroke-linecap="round"/>
</svg>
