<svg width="28" height="28" viewBox="0 0 28 28" fill="none" xmlns="http://www.w3.org/2000/svg">
<rect width="28" height="28" rx="14" fill="#E5E7EB"/>
<path d="M13.25 19H11.2954C10.5227 19 9.90816 18.624 9.35633 18.0983C8.22668 17.022 10.0814 16.162 10.7888 15.7408C12.064 14.9814 13.6029 14.8059 15 15.214" stroke="#1F2937" stroke-width="0.75" stroke-linecap="round" stroke-linejoin="round"/>
<path d="M16.25 11.25C16.25 12.4926 15.2427 13.5 14 13.5C12.7574 13.5 11.75 12.4926 11.75 11.25C11.75 10.0074 12.7574 9 14 9C15.2427 9 16.25 10.0074 16.25 11.25Z" stroke="#1F2937" stroke-width="0.75"/>
<path d="M17.2166 14.9243C17.3842 14.7426 17.4681 14.6518 17.5571 14.5988C17.7721 14.4709 18.0368 14.467 18.2553 14.5883C18.3459 14.6386 18.4323 14.7269 18.6051 14.9034C18.7779 15.0799 18.8643 15.1682 18.9136 15.2607C19.0323 15.484 19.0284 15.7544 18.9033 15.9739C18.8514 16.0649 18.7625 16.1506 18.5847 16.3219L16.4689 18.3597C16.1319 18.6843 15.9634 18.8466 15.7528 18.9289C15.5422 19.0111 15.3107 19.0051 14.8477 18.993L14.7847 18.9913C14.6437 18.9876 14.5733 18.9858 14.5323 18.9393C14.4913 18.8928 14.4969 18.821 14.5081 18.6774L14.5142 18.5994C14.5457 18.1953 14.5614 17.9933 14.6403 17.8116C14.7192 17.63 14.8553 17.4825 15.1276 17.1875L17.2166 14.9243Z" stroke="#1F2937" stroke-width="0.75" stroke-linejoin="round"/>
</svg>
