<svg width="17" height="17" viewBox="0 0 17 17" fill="none" xmlns="http://www.w3.org/2000/svg">
<path d="M1.34985 4.04883L6.01634 6.69289C7.7367 7.66765 8.46357 7.66765 10.1839 6.69289L14.8504 4.04883" stroke="#EB4219" stroke-width="1.01254" stroke-linejoin="round"/>
<path d="M1.3605 9.09905C1.40463 11.1684 1.42669 12.203 2.19024 12.9695C2.95377 13.7359 4.01644 13.7626 6.14176 13.816C7.45164 13.8489 8.74864 13.8489 10.0585 13.816C12.1839 13.7626 13.2465 13.7359 14.0101 12.9695C14.7736 12.203 14.7957 11.1684 14.8398 9.09905C14.854 8.43367 14.854 7.77228 14.8398 7.1069C14.7957 5.03758 14.7736 4.00291 14.0101 3.23647C13.2465 2.47002 12.1839 2.44332 10.0585 2.38992C8.74864 2.35701 7.45164 2.35701 6.14176 2.38991C4.01644 2.44331 2.95377 2.47001 2.19023 3.23646C1.42669 4.00291 1.40463 5.03757 1.36049 7.1069C1.3463 7.77228 1.34631 8.43367 1.3605 9.09905Z" stroke="#EB4219" stroke-width="1.01254" stroke-linejoin="round"/>
</svg>
