<svg width="16" height="16" viewBox="0 0 16 16" fill="none" xmlns="http://www.w3.org/2000/svg">
<path d="M7.32791 9.86957C7.99804 9.42344 8.50681 8.77349 8.77898 8.01585C9.05115 7.25821 9.07227 6.43309 8.83923 5.66251C8.60619 4.89193 8.13135 4.2168 7.48493 3.73696C6.83851 3.25712 6.05483 2.99805 5.24979 2.99805C4.44474 2.99805 3.66106 3.25712 3.01464 3.73696C2.36823 4.2168 1.89339 4.89193 1.66034 5.66251C1.4273 6.43309 1.44843 7.25821 1.7206 8.01585C1.99277 8.77349 2.50154 9.42344 3.17166 9.86957C1.95947 10.3163 0.924228 11.1431 0.220412 12.2264C0.183422 12.2814 0.157728 12.3432 0.144825 12.4082C0.131922 12.4732 0.132066 12.5401 0.14525 12.605C0.158434 12.67 0.184394 12.7316 0.221621 12.7865C0.258848 12.8413 0.3066 12.8882 0.362101 12.9244C0.417602 12.9606 0.479745 12.9854 0.544917 12.9973C0.610089 13.0093 0.676991 13.0082 0.741734 12.9941C0.806477 12.98 0.867769 12.9531 0.922048 12.9151C0.976327 12.8771 1.02251 12.8287 1.05791 12.7727C1.51191 12.0744 2.13313 11.5006 2.86519 11.1034C3.59724 10.7062 4.41691 10.4982 5.24979 10.4982C6.08266 10.4982 6.90234 10.7062 7.63439 11.1034C8.36644 11.5006 8.98767 12.0744 9.44166 12.7727C9.515 12.8817 9.62828 12.9574 9.75702 12.9836C9.88577 13.0097 10.0196 12.9841 10.1297 12.9124C10.2397 12.8406 10.3171 12.7284 10.345 12.6001C10.373 12.4717 10.3493 12.3375 10.2792 12.2264C9.57535 11.1431 8.5401 10.3163 7.32791 9.86957ZM2.49979 6.74957C2.49979 6.20567 2.66107 5.67399 2.96325 5.22175C3.26542 4.76952 3.69491 4.41704 4.19741 4.2089C4.6999 4.00076 5.25284 3.9463 5.78629 4.05241C6.31973 4.15852 6.80974 4.42043 7.19433 4.80502C7.57893 5.18962 7.84084 5.67962 7.94695 6.21307C8.05306 6.74652 7.9986 7.29945 7.79046 7.80195C7.58231 8.30444 7.22984 8.73394 6.77761 9.03611C6.32537 9.33828 5.79369 9.49957 5.24979 9.49957C4.5207 9.49874 3.8217 9.20874 3.30616 8.6932C2.79061 8.17765 2.50061 7.47866 2.49979 6.74957ZM15.6335 12.9183C15.5225 12.9907 15.3872 13.0161 15.2574 12.9888C15.1277 12.9615 15.0141 12.8837 14.9417 12.7727C14.4882 12.074 13.8671 11.5 13.1349 11.1029C12.4027 10.7059 11.5827 10.4985 10.7498 10.4996C10.6172 10.4996 10.49 10.4469 10.3962 10.3531C10.3025 10.2594 10.2498 10.1322 10.2498 9.99957C10.2498 9.86696 10.3025 9.73978 10.3962 9.64601C10.49 9.55225 10.6172 9.49957 10.7498 9.49957C11.1548 9.49919 11.5547 9.40936 11.9209 9.23651C12.2872 9.06367 12.6107 8.81206 12.8684 8.49968C13.1262 8.18729 13.3117 7.82184 13.4118 7.42943C13.512 7.03702 13.5242 6.62734 13.4476 6.22966C13.371 5.83198 13.2076 5.45613 12.9689 5.12894C12.7303 4.80176 12.4223 4.53132 12.067 4.33696C11.7117 4.1426 11.3178 4.02912 10.9136 4.00461C10.5094 3.9801 10.1047 4.04518 9.72854 4.19519C9.6672 4.22171 9.60118 4.23566 9.53436 4.23622C9.46754 4.23679 9.40129 4.22395 9.33952 4.19848C9.27775 4.17301 9.22171 4.13541 9.17471 4.08791C9.12771 4.04041 9.09071 3.98398 9.0659 3.92194C9.04108 3.8599 9.02895 3.79351 9.03023 3.72671C9.0315 3.6599 9.04615 3.59402 9.07332 3.53298C9.10048 3.47193 9.13961 3.41694 9.18838 3.37127C9.23715 3.3256 9.29459 3.29017 9.35729 3.26707C10.2182 2.92373 11.1758 2.91137 12.0452 3.23239C12.9147 3.5534 13.6345 4.18504 14.0658 5.00545C14.497 5.82587 14.6092 6.77692 14.3806 7.67514C14.152 8.57336 13.5989 9.35511 12.8279 9.86957C14.0401 10.3163 15.0753 11.1431 15.7792 12.2264C15.8516 12.3375 15.8769 12.4728 15.8496 12.6025C15.8223 12.7323 15.7446 12.8459 15.6335 12.9183Z" fill="#1F2937"/>
</svg>
