<svg width="20" height="20" viewBox="0 0 15 15" fill="none" xmlns="http://www.w3.org/2000/svg">
<g clip-path="url(#clip0_312_1340)">
<path d="M14.2755 7.60807C14.2755 7.04697 14.2289 6.63751 14.128 6.21289H7.57129V8.74544H11.42C11.3424 9.37481 10.9234 10.3226 9.99223 10.9595L9.97918 11.0443L12.0523 12.6137L12.1959 12.6277C13.515 11.4373 14.2755 9.68568 14.2755 7.60807Z" fill="#4285F4"/>
<path d="M7.57164 14.2793C9.45717 14.2793 11.0401 13.6727 12.1963 12.6263L9.99258 10.9581C9.40287 11.36 8.61139 11.6405 7.57164 11.6405C5.7249 11.6405 4.1575 10.4501 3.59876 8.80469L3.51686 8.81148L1.3612 10.4417L1.33301 10.5183C2.4814 12.7476 4.84028 14.2793 7.57164 14.2793Z" fill="#34A853"/>
<path d="M3.59854 8.8037C3.45111 8.37908 3.36579 7.92409 3.36579 7.454C3.36579 6.98385 3.45111 6.52891 3.59078 6.1043L3.58688 6.01386L1.4042 4.35742L1.33278 4.39062C0.859475 5.3157 0.587891 6.35453 0.587891 7.454C0.587891 8.55347 0.859475 9.59224 1.33278 10.5173L3.59854 8.8037Z" fill="#FBBC05"/>
<path d="M7.57164 3.26957C8.88297 3.26957 9.76754 3.8231 10.2719 4.28566L12.2428 2.40518C11.0324 1.30571 9.45717 0.630859 7.57164 0.630859C4.84028 0.630859 2.4814 2.16252 1.33301 4.39178L3.59101 6.10546C4.1575 4.46005 5.7249 3.26957 7.57164 3.26957Z" fill="#EB4335"/>
</g>
<defs>
<clipPath id="clip0_312_1340">
<rect width="13.6957" height="13.6957" fill="white" transform="translate(0.586914 0.630859)"/>
</clipPath>
</defs>
</svg>
