<svg width="16" height="16" viewBox="0 0 16 16" fill="none" xmlns="http://www.w3.org/2000/svg">
<path d="M6.66699 12H9.33366" stroke="#404040" stroke-linecap="round" stroke-linejoin="round"/>
<path d="M1.56727 8.80965C1.33192 7.27812 1.21425 6.5124 1.50379 5.83357C1.79332 5.15473 2.43569 4.69027 3.72043 3.76136L4.68033 3.06732C6.27853 1.91176 7.07761 1.33398 7.99967 1.33398C8.92174 1.33398 9.72081 1.91176 11.319 3.06732L12.2789 3.76136C13.5637 4.69027 14.206 5.15473 14.4955 5.83357C14.7851 6.5124 14.6674 7.27812 14.4321 8.80965L14.2314 10.1156C13.8977 12.2866 13.7309 13.3721 12.9523 14.0197C12.1737 14.6673 11.0355 14.6673 8.75887 14.6673H7.24047C4.96389 14.6673 3.82561 14.6673 3.04701 14.0197C2.2684 13.3721 2.10159 12.2866 1.76796 10.1156L1.56727 8.80965Z" stroke="#404040" stroke-linejoin="round"/>
</svg>
