<svg width="17" height="17" viewBox="0 0 17 17" fill="none" xmlns="http://www.w3.org/2000/svg">
<path d="M8.10034 0C5.90211 0 5.62568 0.0101254 4.76199 0.048602C3.89829 0.0891037 3.31 0.224784 2.79462 0.425268C2.25376 0.628106 1.76399 0.94713 1.35984 1.35984C0.94713 1.76399 0.628106 2.25376 0.425268 2.79462C0.224784 3.30899 0.0880912 3.89829 0.048602 4.75895C0.0101254 5.62467 0 5.90008 0 8.10135C0 10.3006 0.0101254 10.576 0.048602 11.4397C0.0891037 12.3024 0.224784 12.8907 0.425268 13.4061C0.632839 13.9387 0.909263 14.3903 1.35984 14.8408C1.80941 15.2914 2.26101 15.5688 2.7936 15.7754C3.31 15.9759 3.89728 16.1126 4.75996 16.1521C5.62467 16.1905 5.90008 16.2007 8.10034 16.2007C10.3006 16.2007 10.575 16.1905 11.4397 16.1521C12.3014 16.1116 12.8917 15.9759 13.4071 15.7754C13.9476 15.5724 14.437 15.2534 14.8408 14.8408C15.2914 14.3903 15.5678 13.9387 15.7754 13.4061C15.9749 12.8907 16.1116 12.3024 16.1521 11.4397C16.1905 10.576 16.2007 10.3006 16.2007 8.10034C16.2007 5.90008 16.1905 5.62467 16.1521 4.75996C16.1116 3.89829 15.9749 3.30899 15.7754 2.79462C15.5726 2.25376 15.2535 1.76399 14.8408 1.35984C14.4367 0.94713 13.9469 0.628106 13.4061 0.425268C12.8897 0.224784 12.3004 0.0880912 11.4387 0.048602C10.574 0.0101254 10.2996 0 8.09831 0H8.10034ZM7.37435 1.46009H8.10135C10.2641 1.46009 10.5203 1.46717 11.3739 1.50666C12.1637 1.5421 12.593 1.67474 12.8785 1.78511C13.2562 1.93193 13.5266 2.10811 13.8101 2.39162C14.0936 2.67514 14.2687 2.94447 14.4156 3.32316C14.5269 3.60769 14.6586 4.03701 14.694 4.82679C14.7335 5.68036 14.7416 5.93654 14.7416 8.09831C14.7416 10.2601 14.7335 10.5173 14.694 11.3708C14.6586 12.1606 14.5259 12.5889 14.4156 12.8745C14.2848 13.2257 14.0776 13.5436 13.8091 13.805C13.5255 14.0885 13.2562 14.2637 12.8775 14.4105C12.594 14.5219 12.1647 14.6535 11.3739 14.69C10.5203 14.7284 10.2641 14.7376 8.10135 14.7376C5.93856 14.7376 5.68137 14.7284 4.8278 14.69C4.03802 14.6535 3.60971 14.5219 3.32418 14.4105C2.97265 14.2801 2.65448 14.0733 2.39264 13.805C2.12358 13.5434 1.91606 13.2252 1.78511 12.8735C1.67474 12.5889 1.5421 12.1596 1.50666 11.3698C1.46819 10.5163 1.46009 10.2601 1.46009 8.09629C1.46009 5.93248 1.46819 5.67834 1.50666 4.82476C1.54311 4.03498 1.67474 3.60566 1.78612 3.32013C1.93294 2.94245 2.10913 2.6721 2.39264 2.38859C2.67615 2.10508 2.94549 1.92991 3.32418 1.78309C3.60971 1.67171 4.03802 1.54008 4.8278 1.50363C5.57506 1.4692 5.86464 1.45907 7.37435 1.45806V1.46009ZM12.4249 2.80474C12.2973 2.80474 12.1709 2.82988 12.0529 2.87873C11.935 2.92758 11.8278 2.99918 11.7376 3.08945C11.6473 3.17971 11.5757 3.28687 11.5269 3.4048C11.478 3.52273 11.4529 3.64913 11.4529 3.77678C11.4529 3.90443 11.478 4.03083 11.5269 4.14877C11.5757 4.2667 11.6473 4.37386 11.7376 4.46412C11.8278 4.55438 11.935 4.62598 12.0529 4.67483C12.1709 4.72368 12.2973 4.74882 12.4249 4.74882C12.6827 4.74882 12.9299 4.64641 13.1122 4.46412C13.2945 4.28183 13.3969 4.03458 13.3969 3.77678C13.3969 3.51898 13.2945 3.27174 13.1122 3.08945C12.9299 2.90715 12.6827 2.80474 12.4249 2.80474ZM8.10135 3.94081C7.54959 3.93221 7.00162 4.03345 6.48936 4.23864C5.9771 4.44384 5.51078 4.7489 5.11754 5.13604C4.72431 5.52319 4.41201 5.9847 4.19885 6.4937C3.98569 7.00269 3.87591 7.54901 3.87591 8.10084C3.87591 8.65268 3.98569 9.19899 4.19885 9.70799C4.41201 10.217 4.72431 10.6785 5.11754 11.0656C5.51078 11.4528 5.9771 11.7578 6.48936 11.963C7.00162 12.1682 7.54959 12.2695 8.10135 12.2609C9.19342 12.2438 10.235 11.7981 11.0012 11.0198C11.7675 10.2414 12.197 9.19305 12.197 8.10084C12.197 7.00864 11.7675 5.96024 11.0012 5.18194C10.235 4.40363 9.19342 3.95785 8.10135 3.94081ZM8.10135 5.39989C8.45598 5.39989 8.80713 5.46974 9.13477 5.60545C9.4624 5.74116 9.7601 5.94007 10.0109 6.19083C10.2616 6.44159 10.4605 6.73929 10.5962 7.06692C10.732 7.39455 10.8018 7.74571 10.8018 8.10034C10.8018 8.45497 10.732 8.80612 10.5962 9.13376C10.4605 9.46139 10.2616 9.75908 10.0109 10.0098C9.7601 10.2606 9.4624 10.4595 9.13477 10.5952C8.80713 10.7309 8.45598 10.8008 8.10135 10.8008C7.38515 10.8008 6.69828 10.5163 6.19184 10.0098C5.68541 9.50341 5.4009 8.81654 5.4009 8.10034C5.4009 7.38413 5.68541 6.69726 6.19184 6.19083C6.69828 5.6844 7.38515 5.39989 8.10135 5.39989Z" fill="#EB4219"/>
</svg>
