<svg width="32" height="33" viewBox="0 0 32 33" fill="none" xmlns="http://www.w3.org/2000/svg">
<rect y="0.5" width="32" height="32" rx="16" fill="#F3F4F6"/>
<path d="M22.6668 16.2118C22.6668 19.7339 19.6816 22.5896 16.0002 22.5896C15.5673 22.5902 15.1356 22.5501 14.7104 22.4703C14.4044 22.4128 14.2513 22.3841 14.1445 22.4004C14.0377 22.4167 13.8863 22.4972 13.5835 22.6583C12.7269 23.1138 11.7281 23.2747 10.7676 23.096C11.1327 22.6469 11.382 22.1081 11.492 21.5305C11.5587 21.1772 11.3935 20.834 11.1461 20.5827C10.0224 19.4417 9.3335 17.9041 9.3335 16.2118C9.3335 12.6897 12.3187 9.83398 16.0002 9.83398C19.6816 9.83398 22.6668 12.6897 22.6668 16.2118Z" stroke="#525252" stroke-linejoin="round"/>
<path d="M14.6665 15.0648C14.6665 14.385 15.2634 13.834 15.9998 13.834C16.7362 13.834 17.3332 14.385 17.3332 15.0648C17.3332 15.3098 17.2556 15.5381 17.1219 15.7299C16.7234 16.3015 15.9998 16.8466 15.9998 17.5263V17.834" stroke="#525252" stroke-linecap="round"/>
<path d="M16 19.5H16.006" stroke="#525252" stroke-linecap="round" stroke-linejoin="round"/>
</svg>
