<svg width="30" height="30" viewBox="0 0 30 30" fill="none" xmlns="http://www.w3.org/2000/svg">
<mask id="path-1-inside-1_1087_6279" fill="white">
<path d="M0 14.5367C0 6.50832 6.50832 0 14.5367 0C22.5652 0 29.0735 6.50832 29.0735 14.5367C29.0735 22.5652 22.5652 29.0735 14.5367 29.0735C6.50832 29.0735 0 22.5652 0 14.5367Z"/>
</mask>
<path d="M0 14.5367C0 6.50832 6.50832 0 14.5367 0C22.5652 0 29.0735 6.50832 29.0735 14.5367C29.0735 22.5652 22.5652 29.0735 14.5367 29.0735C6.50832 29.0735 0 22.5652 0 14.5367Z" fill="#F9FAFB"/>
<path d="M14.5367 29.0735V28.0351C7.08178 28.0351 1.03834 21.9917 1.03834 14.5367H0H-1.03834C-1.03834 23.1386 5.93486 30.1118 14.5367 30.1118V29.0735ZM29.0735 14.5367H28.0351C28.0351 21.9917 21.9917 28.0351 14.5367 28.0351V29.0735V30.1118C23.1386 30.1118 30.1118 23.1386 30.1118 14.5367H29.0735ZM14.5367 0V1.03834C21.9917 1.03834 28.0351 7.08178 28.0351 14.5367H29.0735H30.1118C30.1118 5.93486 23.1386 -1.03834 14.5367 -1.03834V0ZM14.5367 0V-1.03834C5.93486 -1.03834 -1.03834 5.93486 -1.03834 14.5367H0H1.03834C1.03834 7.08178 7.08178 1.03834 14.5367 1.03834V0Z" fill="#E5E7EB" mask="url(#path-1-inside-1_1087_6279)"/>
<path d="M13.0535 13.8564L13.1609 13.749C14.1882 12.7217 15.8538 12.7217 16.881 13.749C17.9084 14.7763 17.9084 16.4419 16.881 17.4692L15.393 18.9572C14.3657 19.9845 12.7001 19.9845 11.6728 18.9572C10.6455 17.9299 10.6455 16.2643 11.6728 15.237L11.9139 14.996" stroke="#1F2937" stroke-width="0.778754" stroke-linecap="round"/>
<path d="M17.1593 14.0774L17.4003 13.8364C18.4277 12.8091 18.4277 11.1435 17.4003 10.1162C16.3731 9.08888 14.7075 9.08888 13.6802 10.1162L12.1921 11.6042C11.1648 12.6315 11.1648 14.2971 12.1921 15.3244C13.2194 16.3517 14.885 16.3517 15.9123 15.3244L16.0197 15.217" stroke="#1F2937" stroke-width="0.778754" stroke-linecap="round"/>
</svg>
