<svg width="34" height="34" viewBox="0 0 34 34" fill="none" xmlns="http://www.w3.org/2000/svg">
<rect width="34" height="34" rx="17" fill="#F3F4F6"/>
<path d="M15.962 20.0577H13.3078C12.4618 20.0577 11.7408 19.7597 11.1448 19.1637C10.5488 18.5677 10.2505 17.8464 10.25 16.9999C10.2495 16.1534 10.5478 15.4322 11.1448 14.8362C11.7418 14.2402 12.4628 13.9419 13.3078 13.9414H15.962V14.6914H13.3078C12.6728 14.6914 12.1295 14.9174 11.678 15.3694C11.226 15.8219 11 16.3654 11 16.9999C11 17.6344 11.226 18.1777 11.678 18.6297C12.13 19.0817 12.6733 19.3077 13.3078 19.3077H15.962V20.0577ZM14.375 17.3749V16.6249H19.625V17.3749H14.375ZM18.0388 20.0577V19.3077H20.6923C21.3273 19.3077 21.8705 19.0817 22.322 18.6297C22.774 18.1777 23 17.6344 23 16.9999C23 16.3654 22.774 15.8222 22.322 15.3702C21.87 14.9182 21.3268 14.6922 20.6923 14.6922H18.0388V13.9422H20.6923C21.5383 13.9422 22.2595 14.2402 22.856 14.8362C23.4525 15.4322 23.7505 16.1534 23.75 16.9999C23.7495 17.8464 23.4512 18.5677 22.8552 19.1637C22.2592 19.7597 21.5383 20.0579 20.6923 20.0584L18.0388 20.0577Z" fill="#525252"/>
</svg>
