<svg width="36" height="36" viewBox="0 0 36 36" fill="none" xmlns="http://www.w3.org/2000/svg">
<mask id="path-1-inside-1_941_1272" fill="white">
<path d="M0 18C0 8.05888 8.05888 0 18 0C27.9411 0 36 8.05888 36 18C36 27.9411 27.9411 36 18 36C8.05888 36 0 27.9411 0 18Z"/>
</mask>
<path d="M0 18C0 8.05888 8.05888 0 18 0C27.9411 0 36 8.05888 36 18C36 27.9411 27.9411 36 18 36C8.05888 36 0 27.9411 0 18Z" fill="#EB4219" fill-opacity="0.2"/>
<path d="M18 36V35C8.61116 35 1 27.3888 1 18H0H-1C-1 28.4934 7.50659 37 18 37V36ZM36 18H35C35 27.3888 27.3888 35 18 35V36V37C28.4934 37 37 28.4934 37 18H36ZM18 0V1C27.3888 1 35 8.61116 35 18H36H37C37 7.50659 28.4934 -1 18 -1V0ZM18 0V-1C7.50659 -1 -1 7.50659 -1 18H0H1C1 8.61116 8.61116 1 18 1V0Z" fill="#F15716" mask="url(#path-1-inside-1_941_1272)"/>
<path fill-rule="evenodd" clip-rule="evenodd" d="M9.0625 24.5C9.0625 24.2845 9.1481 24.0778 9.30048 23.9255C9.45285 23.7731 9.65951 23.6875 9.875 23.6875H26.125C26.3405 23.6875 26.5472 23.7731 26.6995 23.9255C26.8519 24.0778 26.9375 24.2845 26.9375 24.5C26.9375 24.7155 26.8519 24.9222 26.6995 25.0745C26.5472 25.2269 26.3405 25.3125 26.125 25.3125H9.875C9.65951 25.3125 9.45285 25.2269 9.30048 25.0745C9.1481 24.9222 9.0625 24.7155 9.0625 24.5ZM9.0625 18C9.0625 17.7845 9.1481 17.5778 9.30048 17.4255C9.45285 17.2731 9.65951 17.1875 9.875 17.1875H26.125C26.3405 17.1875 26.5472 17.2731 26.6995 17.4255C26.8519 17.5778 26.9375 17.7845 26.9375 18C26.9375 18.2155 26.8519 18.4222 26.6995 18.5745C26.5472 18.7269 26.3405 18.8125 26.125 18.8125H9.875C9.65951 18.8125 9.45285 18.7269 9.30048 18.5745C9.1481 18.4222 9.0625 18.2155 9.0625 18ZM9.0625 11.5C9.0625 11.2845 9.1481 11.0778 9.30048 10.9255C9.45285 10.7731 9.65951 10.6875 9.875 10.6875H26.125C26.3405 10.6875 26.5472 10.7731 26.6995 10.9255C26.8519 11.0778 26.9375 11.2845 26.9375 11.5C26.9375 11.7155 26.8519 11.9222 26.6995 12.0745C26.5472 12.2269 26.3405 12.3125 26.125 12.3125H9.875C9.65951 12.3125 9.45285 12.2269 9.30048 12.0745C9.1481 11.9222 9.0625 11.7155 9.0625 11.5Z" fill="#EB4219"/>
</svg>
