<svg width="17" height="16" viewBox="0 0 17 16" fill="none" xmlns="http://www.w3.org/2000/svg">
<path fill-rule="evenodd" clip-rule="evenodd" d="M5.44572 1.64689C5.49217 1.60033 5.54734 1.56339 5.60809 1.53818C5.66883 1.51297 5.73395 1.5 5.79972 1.5C5.86549 1.5 5.93061 1.51297 5.99136 1.53818C6.0521 1.56339 6.10728 1.60033 6.15372 1.64689L12.1537 7.64689C12.2003 7.69334 12.2372 7.74852 12.2624 7.80926C12.2876 7.87001 12.3006 7.93513 12.3006 8.00089C12.3006 8.06666 12.2876 8.13178 12.2624 8.19253C12.2372 8.25327 12.2003 8.30845 12.1537 8.35489L6.15372 14.3549C6.05984 14.4488 5.9325 14.5015 5.79972 14.5015C5.66695 14.5015 5.53961 14.4488 5.44572 14.3549C5.35183 14.261 5.29909 14.1337 5.29909 14.0009C5.29909 13.8681 5.35183 13.7408 5.44572 13.6469L11.0927 8.00089L5.44572 2.35489C5.39916 2.30845 5.36222 2.25327 5.33701 2.19253C5.3118 2.13178 5.29883 2.06666 5.29883 2.00089C5.29883 1.93513 5.3118 1.87001 5.33701 1.80926C5.36222 1.74852 5.39916 1.69334 5.44572 1.64689Z" fill="#1F2937"/>
</svg>
