<svg width="36" height="36" viewBox="0 0 36 36" fill="none" xmlns="http://www.w3.org/2000/svg">
<rect x="0.5" y="0.5" width="35" height="35" rx="17.5" fill="#F15716" fill-opacity="0.2"/>
<rect x="0.5" y="0.5" width="35" height="35" rx="17.5" stroke="#EB4219"/>
<path d="M10.1079 19.9943C9.93073 21.1219 10.723 21.9045 11.6931 22.2945C15.412 23.7898 20.5873 23.7898 24.3063 22.2945C25.2763 21.9045 26.0686 21.1219 25.8914 19.9943C25.7825 19.3014 25.244 18.7244 24.845 18.161C24.3224 17.4139 24.2705 16.5991 24.2704 15.7322C24.2704 12.3819 21.4629 9.66602 17.9997 9.66602C14.5365 9.66602 11.729 12.3819 11.729 15.7322C11.7289 16.5991 11.6769 17.4139 11.1544 18.161C10.7554 18.7244 10.2169 19.3014 10.1079 19.9943Z" stroke="#EB4219" stroke-width="1.25" stroke-linecap="round" stroke-linejoin="round"/>
<path d="M15.5 25.5C16.1634 26.0183 17.0396 26.3333 18 26.3333C18.9604 26.3333 19.8366 26.0183 20.5 25.5" stroke="#EB4219" stroke-width="1.25" stroke-linecap="round" stroke-linejoin="round"/>
</svg>
