<svg width="319" height="109" viewBox="0 0 319 109" fill="none" xmlns="http://www.w3.org/2000/svg">
<rect x="105" width="109" height="109" rx="14" fill="#EB4219"/>
<circle cx="6.5" cy="6.5" r="6" transform="matrix(1 0 0 -1 0 35)" stroke="#FF9900"/>
<circle cx="6.5" cy="6.5" r="6" transform="matrix(1 0 0 -1 25 53)" stroke="#EB4219"/>
<circle cx="6.5" cy="6.5" r="6" transform="matrix(1 0 0 -1 49 35)" stroke="#EB4219"/>
<circle cx="6.5" cy="6.5" r="6" transform="matrix(1 0 0 -1 71 53)" stroke="#FF9900"/>
<circle cx="6.5" cy="6.5" r="6" transform="matrix(1 0 0 -1 0 77)" stroke="#FF9900"/>
<circle cx="6.5" cy="6.5" r="6" transform="matrix(1 0 0 -1 25 95)" stroke="#EB4219"/>
<circle cx="6.5" cy="6.5" r="6" transform="matrix(1 0 0 -1 49 77)" stroke="#EB4219"/>
<circle cx="6.5" cy="6.5" r="6" transform="matrix(1 0 0 -1 71 95)" stroke="#FF9900"/>
<path d="M35.4648 67H28.5352L32 60.999L35.4648 67Z" stroke="#EB4219"/>
<path d="M56.4678 45.123L56.4775 45.1543H59.6416L57.1084 46.9951L57.082 47.0137L57.0918 47.0449L58.0596 50.0225L55.5264 48.1826L55.5 48.1631L55.4736 48.1826L52.9395 50.0225L53.9082 47.0449L53.918 47.0137L53.8916 46.9951L51.3584 45.1543H54.5225L54.5322 45.123L55.5 42.1455L56.4678 45.123Z" stroke="#F15716" stroke-width="0.09"/>
<path d="M7.46777 45.123L7.47754 45.1543H10.6416L8.1084 46.9951L8.08203 47.0137L8.0918 47.0449L9.05957 50.0225L6.52637 48.1826L6.5 48.1631L6.47363 48.1826L3.93945 50.0225L4.9082 47.0449L4.91797 47.0137L4.8916 46.9951L2.3584 45.1543H5.52246L5.53223 45.123L6.5 42.1455L7.46777 45.123Z" stroke="#F15716" stroke-width="0.09"/>
<path d="M32.4678 26.123L32.4775 26.1543H35.6416L33.1084 27.9951L33.082 28.0137L33.0918 28.0449L34.0596 31.0225L31.5264 29.1826L31.5 29.1631L31.4736 29.1826L28.9395 31.0225L29.9082 28.0449L29.918 28.0137L29.8916 27.9951L27.3584 26.1543H30.5225L30.5322 26.123L31.5 23.1455L32.4678 26.123Z" stroke="#F15716" stroke-width="0.09"/>
<path d="M81.4648 67H74.5352L78 60.999L81.4648 67Z" stroke="#EB4219"/>
<path d="M78.4678 26.123L78.4775 26.1543H81.6416L79.1084 27.9951L79.082 28.0137L79.0918 28.0449L80.0596 31.0225L77.5264 29.1826L77.5 29.1631L77.4736 29.1826L74.9395 31.0225L75.9082 28.0449L75.918 28.0137L75.8916 27.9951L73.3584 26.1543H76.5225L76.5322 26.123L77.5 23.1455L78.4678 26.123Z" stroke="#F15716" stroke-width="0.09"/>
<path d="M58.4648 91H51.5352L55 84.999L58.4648 91Z" stroke="#EB4219"/>
<circle cx="6.5" cy="6.5" r="6" transform="matrix(1 0 0 -1 235 29)" stroke="#FF9900"/>
<circle cx="6.5" cy="6.5" r="6" transform="matrix(1 0 0 -1 260 47)" stroke="#EB4219"/>
<circle cx="6.5" cy="6.5" r="6" transform="matrix(1 0 0 -1 284 29)" stroke="#EB4219"/>
<circle cx="6.5" cy="6.5" r="6" transform="matrix(1 0 0 -1 306 47)" stroke="#FF9900"/>
<circle cx="6.5" cy="6.5" r="6" transform="matrix(1 0 0 -1 235 71)" stroke="#FF9900"/>
<circle cx="6.5" cy="6.5" r="6" transform="matrix(1 0 0 -1 260 89)" stroke="#EB4219"/>
<circle cx="6.5" cy="6.5" r="6" transform="matrix(1 0 0 -1 284 71)" stroke="#EB4219"/>
<circle cx="6.5" cy="6.5" r="6" transform="matrix(1 0 0 -1 306 89)" stroke="#FF9900"/>
<path d="M270.465 61H263.535L267 54.999L270.465 61Z" stroke="#EB4219"/>
<path d="M291.468 39.123L291.478 39.1543H294.642L292.108 40.9951L292.082 41.0137L292.092 41.0449L293.06 44.0225L290.526 42.1826L290.5 42.1631L290.474 42.1826L287.939 44.0225L288.908 41.0449L288.918 41.0137L288.892 40.9951L286.358 39.1543H289.522L289.532 39.123L290.5 36.1455L291.468 39.123Z" stroke="#F15716" stroke-width="0.09"/>
<path d="M242.468 39.123L242.478 39.1543H245.642L243.108 40.9951L243.082 41.0137L243.092 41.0449L244.06 44.0225L241.526 42.1826L241.5 42.1631L241.474 42.1826L238.939 44.0225L239.908 41.0449L239.918 41.0137L239.892 40.9951L237.358 39.1543H240.522L240.532 39.123L241.5 36.1455L242.468 39.123Z" stroke="#F15716" stroke-width="0.09"/>
<path d="M267.468 20.123L267.478 20.1543H270.642L268.108 21.9951L268.082 22.0137L268.092 22.0449L269.06 25.0225L266.526 23.1826L266.5 23.1631L266.474 23.1826L263.939 25.0225L264.908 22.0449L264.918 22.0137L264.892 21.9951L262.358 20.1543H265.522L265.532 20.123L266.5 17.1455L267.468 20.123Z" stroke="#F15716" stroke-width="0.09"/>
<path d="M316.465 61H309.535L313 54.999L316.465 61Z" stroke="#EB4219"/>
<path d="M313.468 20.123L313.478 20.1543H316.642L314.108 21.9951L314.082 22.0137L314.092 22.0449L315.06 25.0225L312.526 23.1826L312.5 23.1631L312.474 23.1826L309.939 25.0225L310.908 22.0449L310.918 22.0137L310.892 21.9951L308.358 20.1543H311.522L311.532 20.123L312.5 17.1455L313.468 20.123Z" stroke="#F15716" stroke-width="0.09"/>
<path d="M293.465 85H286.535L290 78.999L293.465 85Z" stroke="#EB4219"/>
<path d="M143.822 72.6912C139.598 72.6912 136.488 71.4624 134.491 69.0048C132.494 66.5088 131.496 63.0528 131.496 58.6368C131.496 54.1824 132.821 50.3232 135.47 47.0592C138.12 43.7952 141.518 42.1632 145.665 42.1632C154.19 42.1632 158.453 46.9632 158.453 56.5632C158.453 61.056 157.07 64.8768 154.305 68.0256C151.541 71.136 148.046 72.6912 143.822 72.6912ZM139.675 48.4992C138.984 50.7264 138.638 52.9536 138.638 55.1808C138.638 57.408 138.715 59.136 138.869 60.3648C139.022 61.5936 139.31 62.8224 139.733 64.0512C140.616 66.5472 142.344 67.7952 144.917 67.7952C147.528 67.7952 149.237 67.104 150.043 65.7216C150.888 64.3392 151.31 62.208 151.31 59.328C151.31 51.1488 149.371 47.0592 145.493 47.0592C143.265 47.0592 141.326 47.5392 139.675 48.4992ZM170.125 53.856C171.469 51.0144 173.466 48.4224 176.115 46.08C178.803 43.6992 181.511 42.5088 184.237 42.5088C188.077 42.5088 189.997 44.544 189.997 48.6144C189.997 50.688 189.037 52.9152 187.117 55.296C185.235 57.6384 183.124 59.5008 180.781 60.8832C181.856 62.7648 183.181 64.2048 184.755 65.2032C186.368 66.1632 188.48 66.9312 191.091 67.5072C191.091 69.0048 190.727 70.1952 189.997 71.0784C189.306 71.9232 188.307 72.3456 187.002 72.3456C184.391 72.3456 181.837 71.0976 179.341 68.6016C176.845 66.0672 174.964 63.2448 173.696 60.1344C176.154 58.9056 178.266 57.4464 180.032 55.7568C181.837 54.0672 182.739 52.3776 182.739 50.688C182.739 48.9984 182.221 48.1536 181.184 48.1536C179.187 48.1536 176.96 49.9776 174.503 53.6256C172.083 57.2736 170.682 60.3072 170.298 62.7264C170.375 63.84 170.759 66.7008 171.45 71.3088C170.259 71.7696 168.954 72 167.533 72C164.576 72 163.098 70.56 163.098 67.68C163.098 66.2976 163.309 63.5904 163.731 59.5584C164.154 55.488 164.365 52.224 164.365 49.7664C164.365 41.5872 163.904 34.8288 162.983 29.4912C164.211 29.0304 165.479 28.8 166.784 28.8C168.09 28.8 169.165 29.2416 170.01 30.1248C170.893 30.9696 171.335 32.1408 171.335 33.6384C171.335 35.136 171.123 38.2272 170.701 42.912C170.317 47.5968 170.125 51.2448 170.125 53.856Z" fill="#F6F4F1"/>
</svg>
