<svg width="16" height="16" viewBox="0 0 16 16" fill="none" xmlns="http://www.w3.org/2000/svg">
<path d="M4.38505 10.3217C3.44187 10.8833 0.968909 12.0301 2.47511 13.4651C3.21088 14.166 4.03033 14.6673 5.06058 14.6673H10.9394C11.9697 14.6673 12.7891 14.166 13.5249 13.4651C15.0311 12.0301 12.5581 10.8833 11.6149 10.3217C9.4032 9.00473 6.5968 9.00473 4.38505 10.3217Z" stroke="#404040" stroke-linecap="round" stroke-linejoin="round"/>
<path d="M11 4.33398C11 5.99084 9.65687 7.33398 8 7.33398C6.34315 7.33398 5 5.99084 5 4.33398C5 2.67713 6.34315 1.33398 8 1.33398C9.65687 1.33398 11 2.67713 11 4.33398Z" stroke="#404040"/>
</svg>
