<svg width="125" height="125" viewBox="0 0 125 125" fill="none" xmlns="http://www.w3.org/2000/svg">
<path opacity="0.03" d="M62.3004 96.9666C86.054 96.9666 105.31 77.7105 105.31 53.9569C105.31 30.2033 86.054 10.9473 62.3004 10.9473C38.5468 10.9473 19.2908 30.2033 19.2908 53.9569C19.2908 77.7105 38.5468 96.9666 62.3004 96.9666Z" fill="#000001"/>
<path d="M92.8 92.0898L95.3294 113.653H114.63L110.354 93.291L92.8 92.0898Z" fill="#24285B"/>
<path opacity="0.09" d="M104.086 113.653L102.142 102.713C101.786 100.71 100.505 98.9925 98.6861 98.078L97.2656 97.3652C97.2656 97.3652 100.346 108.076 98.7858 113.653H104.084H104.086Z" fill="#000001"/>
<path d="M82.9841 101.756C82.9841 101.756 95.4791 93.2031 95.4043 84.2044C95.3295 75.2058 81.7954 81.3785 82.9841 101.756Z" fill="#F4A28C"/>
<path d="M107.176 57.5249C107.176 57.5249 121.212 60.9962 117.939 72.7486C114.667 84.4984 110.354 93.2902 110.354 93.2902L92.8026 92.0891C92.8026 92.0891 75.2937 51.2276 107.179 57.5274L107.176 57.5249Z" fill="#68E1FD"/>
<path d="M25.9193 84.7627C25.9193 84.7627 24.4216 96.9785 35.85 104.033L41.9853 98.4837L31.4815 77.623L25.9218 84.7627H25.9193Z" fill="#F4A28C"/>
<path d="M105.021 45.5508L107.176 57.5249L100.047 61.8311L101.609 49.239L105.021 45.5508Z" fill="#F4A28C"/>
<path opacity="0.31" d="M101.28 51.2015C101.28 51.2015 102.514 50.9249 103.426 49.8633C103.426 49.8633 103.376 52.0911 100.976 54.3364L101.28 51.204V51.2015Z" fill="#CE8172"/>
<path d="M99.5933 44.6744C99.5933 44.6744 98.8432 48.3103 99.1746 50.8272C99.3092 51.8464 100.261 52.5766 101.28 52.4271C102.546 52.2427 104.201 51.6246 104.839 49.7232L106.319 46.6306C106.319 46.6306 107.179 44.662 105.275 42.9225C103.371 41.1831 99.9397 42.4341 99.5933 44.6744Z" fill="#F4A28C"/>
<path d="M99.2394 46.9902L98.0457 48.2911C97.7517 48.6125 97.8912 49.1309 98.3074 49.2605L99.6855 49.6916L99.2394 46.9902Z" fill="#F4A28C"/>
<path d="M106.187 50.4745L107.478 45.5927C107.478 45.5927 110.297 45.1142 109.452 43.2726C108.607 41.431 107.478 42.6521 107.438 40.5414C107.398 38.4306 105.684 37.9995 104.465 39.1832C103.247 40.3669 103.815 38.7122 102.3 38.483C100.785 38.2562 100.381 38.934 100.344 40.0853C100.306 41.2391 98.1207 40.0056 97.555 41.4634C96.9893 42.9188 96.907 44.3367 100.682 44.5759C104.458 44.8177 101.749 47.9202 106.187 50.4721V50.4745Z" fill="#FFD200"/>
<path d="M103.142 48.2914C103.142 48.2914 103.336 46.8759 104.39 47.1102C105.444 47.3444 105.175 49.3928 103.705 49.4153L103.144 48.2939L103.142 48.2914Z" fill="#F4A28C"/>
<path d="M90.7443 56.168H36.4159C34.4134 56.168 32.79 57.7913 32.79 59.7938V101.326C32.79 103.328 34.4134 104.952 36.4159 104.952H90.7443C92.7468 104.952 94.3702 103.328 94.3702 101.326V59.7938C94.3702 57.7913 92.7468 56.168 90.7443 56.168Z" fill="#E6E6E6"/>
<path d="M83.0564 78.9525L65.2934 65.832V73.6594H62.749C54.8618 73.6594 48.4673 80.0539 48.4673 87.9412V92.0904L49.5962 90.8518C53.4389 86.6428 58.8739 84.2455 64.5707 84.2455H65.2909V92.0729L83.0539 78.9525H83.0564Z" fill="#A5A5A5"/>
<path d="M14.3564 85.4023L13.7433 86.4714C10.2072 92.6392 7.85221 99.4124 6.79809 106.442L5.71655 113.654H34.5716L28.1845 93.2921L14.3539 85.4048L14.3564 85.4023Z" fill="#24285B"/>
<path d="M25.077 46.7207L21.9695 57.6806L28.1322 58.9615L27.9179 50.4712L25.077 46.7207Z" fill="#F4A28C"/>
<path opacity="0.09" d="M38.9128 69.7637C38.9128 69.7637 43.5081 76.2828 39.7651 80.9703C36.0221 85.6552 28.1299 86.9959 28.1299 86.9959L38.9128 69.7662V69.7637Z" fill="#000001"/>
<path opacity="0.31" d="M28.0451 52.3282C28.0451 52.3282 26.9212 51.9569 26.1686 50.8828C26.1686 50.8828 26.0116 52.9612 28.0401 55.2762L28.0451 52.3282Z" fill="#CE8172"/>
<path d="M31.4593 47.04C31.4593 47.04 31.1503 50.504 30.1735 52.6695C29.7772 53.5467 28.7281 53.9454 27.8534 53.5367C26.7694 53.0284 25.4511 52.0291 25.3913 50.1526L24.9004 46.9802C24.9004 46.9802 24.6611 44.9816 26.8366 43.9375C29.0122 42.8933 31.7509 44.9418 31.4568 47.04H31.4593Z" fill="#F4A28C"/>
<path d="M27.3 49.3254C27.3 49.3254 27.5094 48.0021 26.5001 47.9299C25.4908 47.8551 25.1793 49.764 26.4926 50.1802L27.3 49.3254Z" fill="#F4A28C"/>
<path d="M31.1528 49.2129L31.873 50.7006C32.0499 51.0669 31.7858 51.4956 31.3771 51.5006L30.0239 51.5155L31.1528 49.2154V49.2129Z" fill="#F4A28C"/>
<path d="M28.1323 58.9627C28.1323 58.9627 42.9324 65.5317 38.2249 75.714C34.8159 83.0904 30.9258 81.4781 29.5801 87.434L28.1871 93.2927L13.0581 87.8177C13.0581 87.8177 15.3632 79.2577 14.6904 73.4513C14.0175 67.6449 11.7971 53.1613 28.1323 58.9627Z" fill="#68E1FD"/>
<path opacity="0.09" d="M23.8907 62.0684C23.8907 62.0684 29.8391 70.0204 25.6226 78.9617C22.5824 85.4036 25.8843 87.2128 25.0495 88.6656L17.3417 89.3684L13.0554 87.8183L13.8653 84.2149L23.8882 62.0709L23.8907 62.0684Z" fill="#000001"/>
<path opacity="0.09" d="M41.2526 79.0918C41.2526 79.0918 44.704 79.1865 42.9197 83.9363C41.1354 88.686 34.5366 97.0268 25.4906 98.061C16.4446 99.0977 13.6186 92.1051 16.4446 87.0488C16.4446 87.0488 16.8906 92.2646 23.4347 89.3589C29.9787 86.4532 41.2551 79.0918 41.2551 79.0918H41.2526Z" fill="#000001"/>
<path d="M26.5001 47.9288C26.5001 47.9288 28.561 58.8089 24.8903 60.0574C21.2196 61.3059 15.4555 59.7185 15.5527 55.2777C15.6499 50.8369 20.0633 50.6201 21.3143 44.6293C22.5653 38.6385 33.9961 41.3972 33.4205 44.8686C32.8448 48.3399 26.5001 47.9313 26.5001 47.9313V47.9288Z" fill="#FFD200"/>
<path d="M24.1925 63.0918C23.2406 58.6187 17.4715 57.3502 14.7503 61.0259C13.1653 63.1666 12.0963 66.2467 13.0582 70.5205C15.3882 80.8624 12.1386 93.5766 19.6371 94.4688C27.1381 95.3609 39.1496 83.4615 39.1496 83.4615L37.5497 80.5633C37.5497 80.5633 26.692 87.9247 23.2705 86.5865C20.6165 85.5474 26.1039 72.0755 24.1925 63.0968V63.0918Z" fill="#F4A28C"/>
<path d="M37.5496 80.5591C37.5496 80.5591 39.4285 76.3924 41.1007 77.3419C42.7728 78.2913 42.0501 81.7104 39.1494 83.4598L37.5496 80.5616V80.5591Z" fill="#F4A28C"/>
<path d="M46.3865 105.099C46.3865 105.099 50.7251 107.222 50.9743 104.331C51.2235 101.441 47.007 102.308 46.3865 105.099Z" fill="#F4A28C"/>
<path opacity="0.09" d="M109.606 62.7422C109.606 62.7422 103.815 65.1644 103.142 72.8996C102.469 80.6348 103.269 86.2344 100.675 85.4045C98.0807 84.5747 85.3615 79.0923 85.3615 79.0923C85.3615 79.0923 80.7513 81.8235 85.3615 84.2782C89.9717 86.7328 102.801 92.7759 102.801 92.7759L110.351 93.2918L112.166 89.2422L109.606 62.7422Z" fill="#000001"/>
<path d="M81.0427 105.099C81.0427 105.099 76.7041 107.222 76.4549 104.331C76.2057 101.441 80.4222 102.308 81.0427 105.099Z" fill="#F4A28C"/>
<path d="M116.18 62.7943C118.7 65.8894 120.536 71.327 116.599 80.3306L106.511 77.2031C106.511 77.2031 106.673 70.0411 108.866 64.0353C110.005 60.9153 114.082 60.2201 116.18 62.7968V62.7943Z" fill="#68E1FD"/>
<path opacity="0.44" d="M116.18 62.7943C118.7 65.8894 120.536 71.327 116.599 80.3306L106.511 77.2031C106.511 77.2031 106.673 70.0411 108.866 64.0353C110.005 60.9153 114.082 60.2201 116.18 62.7968V62.7943Z" fill="white"/>
<path d="M116.599 80.3305C116.599 80.3305 113.177 91.7987 108.717 90.8269C104.253 89.855 87.2977 81.9727 87.2977 81.9727C87.2977 81.9727 81.1574 78.5861 85.1545 76.2561C86.6273 75.3988 89.7498 79.5181 89.7498 79.5181L106.511 83.4605L107.862 77.6217L116.596 80.3305H116.599Z" fill="#F4A28C"/>
</svg>
