<svg width="16" height="16" viewBox="0 0 16 16" fill="none" xmlns="http://www.w3.org/2000/svg">
<path d="M12 1.33398V2.66732M4 1.33398V2.66732" stroke="#1F2937" stroke-linecap="round" stroke-linejoin="round"/>
<path d="M7.99716 8.66602H8.00316M7.99716 11.3327H8.00316M10.6608 8.66602H10.6668M5.3335 8.66602H5.33948M5.3335 11.3327H5.33948" stroke="#1F2937" stroke-width="1.33333" stroke-linecap="round" stroke-linejoin="round"/>
<path d="M2.3335 5.33398H13.6668" stroke="#1F2937" stroke-linecap="round" stroke-linejoin="round"/>
<path d="M1.6665 8.16213C1.6665 5.25729 1.6665 3.80485 2.50125 2.90243C3.336 2 4.6795 2 7.3665 2H8.63317C11.3202 2 12.6637 2 13.4984 2.90243C14.3332 3.80485 14.3332 5.25729 14.3332 8.16213V8.50453C14.3332 11.4094 14.3332 12.8618 13.4984 13.7643C12.6637 14.6667 11.3202 14.6667 8.63317 14.6667H7.3665C4.6795 14.6667 3.336 14.6667 2.50125 13.7643C1.6665 12.8618 1.6665 11.4094 1.6665 8.50453V8.16213Z" stroke="#1F2937" stroke-linecap="round" stroke-linejoin="round"/>
<path d="M2 5.33398H14" stroke="#1F2937" stroke-linecap="round" stroke-linejoin="round"/>
</svg>
