<svg width="16" height="16" viewBox="0 0 16 16" fill="none" xmlns="http://www.w3.org/2000/svg">
<path d="M11.8333 7.00065C13.3981 7.00065 14.6667 5.73212 14.6667 4.16732C14.6667 2.60251 13.3981 1.33398 11.8333 1.33398C10.2685 1.33398 9 2.60251 9 4.16732C9 5.73212 10.2685 7.00065 11.8333 7.00065Z" stroke="#1F2937"/>
<path d="M4.16683 7.00065C5.73164 7.00065 7.00016 5.73212 7.00016 4.16732C7.00016 2.60251 5.73164 1.33398 4.16683 1.33398C2.60202 1.33398 1.3335 2.60251 1.3335 4.16732C1.3335 5.73212 2.60202 7.00065 4.16683 7.00065Z" stroke="#1F2937"/>
<path d="M11.8333 14.6667C13.3981 14.6667 14.6667 13.3981 14.6667 11.8333C14.6667 10.2685 13.3981 9 11.8333 9C10.2685 9 9 10.2685 9 11.8333C9 13.3981 10.2685 14.6667 11.8333 14.6667Z" stroke="#1F2937"/>
<path d="M4.16683 14.6667C5.73164 14.6667 7.00016 13.3981 7.00016 11.8333C7.00016 10.2685 5.73164 9 4.16683 9C2.60202 9 1.3335 10.2685 1.3335 11.8333C1.3335 13.3981 2.60202 14.6667 4.16683 14.6667Z" stroke="#1F2937"/>
</svg>
