<svg width="16" height="16" viewBox="0 0 16 16" fill="none" xmlns="http://www.w3.org/2000/svg">
<path d="M14.6663 7.71178C14.6663 11.2339 11.6811 14.0896 7.99967 14.0896C7.56681 14.0902 7.13514 14.0501 6.70994 13.9703C6.40389 13.9128 6.25086 13.8841 6.14403 13.9004C6.03719 13.9167 5.88579 13.9972 5.583 14.1583C4.72643 14.6138 3.72764 14.7747 2.76708 14.596C3.13217 14.1469 3.38151 13.6081 3.49153 13.0305C3.55819 12.6772 3.39301 12.334 3.1456 12.0827C2.02189 10.9417 1.33301 9.40405 1.33301 7.71178C1.33301 4.1897 4.31819 1.33398 7.99967 1.33398C11.6811 1.33398 14.6663 4.1897 14.6663 7.71178Z" stroke="#404040" stroke-linejoin="round"/>
<path d="M6.66699 6.56475C6.66699 5.88502 7.26393 5.33398 8.00033 5.33398C8.73673 5.33398 9.33366 5.88502 9.33366 6.56475C9.33366 6.80978 9.25613 7.03805 9.12239 7.22985C8.72393 7.80145 8.00033 8.34658 8.00033 9.02632V9.33398" stroke="#404040" stroke-linecap="round"/>
<path d="M8 11H8.006" stroke="#404040" stroke-linecap="round" stroke-linejoin="round"/>
</svg>
