<svg width="33" height="33" viewBox="0 0 33 33" fill="none" xmlns="http://www.w3.org/2000/svg">
<rect width="33" height="33" rx="16.5" fill="#EB4219"/>
<path d="M18.333 17.666C18.333 18.1492 18.7248 18.541 19.208 18.541C19.6912 18.541 20.083 18.1492 20.083 17.666C20.083 17.1828 19.6912 16.791 19.208 16.791C18.7248 16.791 18.333 17.1828 18.333 17.666Z" stroke="white" stroke-width="0.875"/>
<path d="M20.025 14.166C20.0633 13.9775 20.0833 13.7825 20.0833 13.5827C20.0833 11.9719 18.7775 10.666 17.1667 10.666C15.5558 10.666 14.25 11.9719 14.25 13.5827C14.25 13.7825 14.2701 13.9775 14.3083 14.166" stroke="white" stroke-width="0.875"/>
<path d="M13.0837 14.1634H18.3337C19.9836 14.1634 20.8085 14.1634 21.3211 14.6762C21.8337 15.189 21.8337 16.0143 21.8337 17.665V18.8323C21.8337 20.483 21.8337 21.3084 21.3211 21.8212C20.8085 22.334 19.9836 22.334 18.3337 22.334H14.8337C12.6338 22.334 11.5338 22.334 10.8504 21.6503C10.167 20.9665 10.167 19.866 10.167 17.665V16.4979C10.167 14.2969 10.167 13.1964 10.8504 12.5127C11.4005 11.9623 12.2206 11.8549 13.667 11.834H14.8337" stroke="white" stroke-width="0.875" stroke-linecap="round"/>
</svg>
