<svg width="25" height="24" viewBox="0 0 25 24" fill="none" xmlns="http://www.w3.org/2000/svg">
<path d="M16.5 14C16.5 14.8284 17.1716 15.5 18 15.5C18.8284 15.5 19.5 14.8284 19.5 14C19.5 13.1716 18.8284 12.5 18 12.5C17.1716 12.5 16.5 13.1716 16.5 14Z" stroke="#EB4219" stroke-width="1.5"/>
<path d="M19.4 8C19.4656 7.67689 19.5 7.34247 19.5 7C19.5 4.23858 17.2614 2 14.5 2C11.7386 2 9.5 4.23858 9.5 7C9.5 7.34247 9.53443 7.67689 9.60002 8" stroke="#EB4219" stroke-width="1.5"/>
<path d="M7.5 7.99324H16.5C19.3284 7.99324 20.7426 7.99324 21.6213 8.87234C22.5 9.75145 22.5 11.1663 22.5 13.9961V15.9971C22.5 18.8269 22.5 20.2418 21.6213 21.1209C20.7426 22 19.3284 22 16.5 22H10.5C6.72876 22 4.84315 22 3.67157 20.8279C2.5 19.6557 2.5 17.7692 2.5 13.9961V11.9952C2.5 8.22211 2.5 6.33558 3.67157 5.16344C4.61466 4.2199 6.02043 4.03589 8.5 4H10.5" stroke="#EB4219" stroke-width="1.5" stroke-linecap="round"/>
</svg>
